<svg width="24" height="24" viewBox="0 0 24 24" fill="none" xmlns="http://www.w3.org/2000/svg">
<g clip-path="url(#clip0_2007_22)">
<path d="M20.2731 20.2735H16.7911V14.8205C16.7911 13.5202 16.7679 11.8462 14.9802 11.8462C13.1667 11.8462 12.8892 13.263 12.8892 14.7258V20.2731H9.4072V9.0595H12.7499V10.592H12.7967C13.4783 9.42655 14.7456 8.7305 16.0947 8.78058C19.6239 8.78058 20.2746 11.1019 20.2746 14.1219L20.2731 20.2735ZM5.4784 7.52668C4.36243 7.52688 3.4576 6.62235 3.4574 5.50638C3.4572 4.39038 4.3617 3.48553 5.47767 3.48533C6.59362 3.48513 7.49845 4.38965 7.49865 5.50565C7.49875 6.04155 7.28595 6.55558 6.90707 6.93458C6.5282 7.3136 6.0143 7.52658 5.4784 7.52668ZM7.21938 20.2735H3.73377V9.0595H7.21938V20.2735ZM22.009 0.251753H1.98409C1.03767 0.241073 0.26155 0.999191 0.25 1.94562V22.0541C0.261155 23.0009 1.03721 23.7598 1.98409 23.7499H22.009C22.9578 23.7616 23.7369 23.0028 23.75 22.0541V1.94417C23.7365 0.995871 22.9573 0.237795 22.009 0.250151" fill="#0A66C2"/>
</g>
<defs>
<clipPath id="clip0_2007_22">
<rect width="24" height="24" fill="white"/>
</clipPath>
</defs>
</svg>
